<mxfile host="app.diagrams.net" modified="2023-12-15T20:32:52.301Z" agent="Mozilla/5.0 (Windows NT 10.0; Win64; x64; rv:120.0) Gecko/20100101 Firefox/120.0" etag="l3730i-wnUdWjk-YgC7g" version="22.1.11" type="device">
  <diagram name="Page-1" id="6Ro20vardcYZ4O31tJ5b">
    <mxGraphModel dx="2368" dy="666" grid="1" gridSize="10" guides="1" tooltips="1" connect="1" arrows="1" fold="1" page="1" pageScale="1" pageWidth="850" pageHeight="1100" math="0" shadow="0">
      <root>
        <mxCell id="0" />
        <mxCell id="1" parent="0" />
        <mxCell id="WbEfnXnHUkvsYJeZbc4o-3" value="FRONT" style="whiteSpace=wrap;html=1;align=center;glass=0;" parent="1" vertex="1">
          <mxGeometry x="350" y="10" width="140" height="60" as="geometry" />
        </mxCell>
        <mxCell id="WbEfnXnHUkvsYJeZbc4o-4" value="API GATEWAY" style="whiteSpace=wrap;html=1;align=center;glass=0;" parent="1" vertex="1">
          <mxGeometry x="350" y="160" width="140" height="60" as="geometry" />
        </mxCell>
        <mxCell id="WbEfnXnHUkvsYJeZbc4o-6" value="HTTPS" style="text;html=1;strokeColor=none;fillColor=none;align=center;verticalAlign=middle;whiteSpace=wrap;rounded=0;" parent="1" vertex="1">
          <mxGeometry x="425" y="90" width="60" height="30" as="geometry" />
        </mxCell>
        <mxCell id="WbEfnXnHUkvsYJeZbc4o-17" value="" style="endArrow=classic;startArrow=classic;html=1;rounded=0;" parent="1" source="WbEfnXnHUkvsYJeZbc4o-10" target="WbEfnXnHUkvsYJeZbc4o-4" edge="1">
          <mxGeometry width="50" height="50" relative="1" as="geometry">
            <mxPoint x="400" y="290" as="sourcePoint" />
            <mxPoint x="450" y="240" as="targetPoint" />
          </mxGeometry>
        </mxCell>
        <mxCell id="WbEfnXnHUkvsYJeZbc4o-20" value="" style="endArrow=classic;startArrow=classic;html=1;rounded=0;" parent="1" source="WbEfnXnHUkvsYJeZbc4o-3" target="WbEfnXnHUkvsYJeZbc4o-4" edge="1">
          <mxGeometry width="50" height="50" relative="1" as="geometry">
            <mxPoint x="400" y="290" as="sourcePoint" />
            <mxPoint x="450" y="240" as="targetPoint" />
          </mxGeometry>
        </mxCell>
        <mxCell id="WbEfnXnHUkvsYJeZbc4o-21" value="" style="endArrow=classic;startArrow=classic;html=1;rounded=0;" parent="1" source="WbEfnXnHUkvsYJeZbc4o-12" target="WbEfnXnHUkvsYJeZbc4o-4" edge="1">
          <mxGeometry width="50" height="50" relative="1" as="geometry">
            <mxPoint x="400" y="290" as="sourcePoint" />
            <mxPoint x="450" y="240" as="targetPoint" />
          </mxGeometry>
        </mxCell>
        <mxCell id="WbEfnXnHUkvsYJeZbc4o-23" value="" style="endArrow=classic;startArrow=classic;html=1;rounded=0;exitX=0;exitY=0;exitDx=0;exitDy=0;" parent="1" source="WbEfnXnHUkvsYJeZbc4o-11" target="WbEfnXnHUkvsYJeZbc4o-4" edge="1">
          <mxGeometry width="50" height="50" relative="1" as="geometry">
            <mxPoint x="400" y="290" as="sourcePoint" />
            <mxPoint x="450" y="240" as="targetPoint" />
          </mxGeometry>
        </mxCell>
        <mxCell id="WbEfnXnHUkvsYJeZbc4o-24" value="" style="endArrow=classic;startArrow=classic;html=1;rounded=0;" parent="1" source="WbEfnXnHUkvsYJeZbc4o-8" target="WbEfnXnHUkvsYJeZbc4o-4" edge="1">
          <mxGeometry width="50" height="50" relative="1" as="geometry">
            <mxPoint x="400" y="290" as="sourcePoint" />
            <mxPoint x="450" y="240" as="targetPoint" />
          </mxGeometry>
        </mxCell>
        <mxCell id="WbEfnXnHUkvsYJeZbc4o-25" value="" style="endArrow=classic;startArrow=classic;html=1;rounded=0;" parent="1" source="WbEfnXnHUkvsYJeZbc4o-9" target="WbEfnXnHUkvsYJeZbc4o-4" edge="1">
          <mxGeometry width="50" height="50" relative="1" as="geometry">
            <mxPoint x="400" y="290" as="sourcePoint" />
            <mxPoint x="450" y="240" as="targetPoint" />
          </mxGeometry>
        </mxCell>
        <mxCell id="WbEfnXnHUkvsYJeZbc4o-26" value="" style="endArrow=classic;startArrow=classic;html=1;rounded=0;" parent="1" source="WbEfnXnHUkvsYJeZbc4o-7" target="WbEfnXnHUkvsYJeZbc4o-4" edge="1">
          <mxGeometry width="50" height="50" relative="1" as="geometry">
            <mxPoint x="400" y="290" as="sourcePoint" />
            <mxPoint x="450" y="240" as="targetPoint" />
          </mxGeometry>
        </mxCell>
        <mxCell id="DEsTeIGjAZ-HHGJhU62D-1" value="MONGO" style="whiteSpace=wrap;html=1;align=center;glass=0;" parent="1" vertex="1">
          <mxGeometry x="330" y="680" width="140" height="60" as="geometry" />
        </mxCell>
        <mxCell id="DEsTeIGjAZ-HHGJhU62D-3" value="MONGO" style="whiteSpace=wrap;html=1;align=center;glass=0;" parent="1" vertex="1">
          <mxGeometry x="600" y="540" width="140" height="60" as="geometry" />
        </mxCell>
        <mxCell id="DEsTeIGjAZ-HHGJhU62D-2" value="CONSUL" style="whiteSpace=wrap;html=1;align=center;glass=0;" parent="1" vertex="1">
          <mxGeometry x="960" y="230" width="140" height="60" as="geometry" />
        </mxCell>
        <mxCell id="WbEfnXnHUkvsYJeZbc4o-10" value="AUTH" style="whiteSpace=wrap;html=1;align=center;glass=0;" parent="1" vertex="1">
          <mxGeometry x="600" y="420" width="140" height="60" as="geometry" />
        </mxCell>
        <mxCell id="WbEfnXnHUkvsYJeZbc4o-11" value="PROFILE" style="whiteSpace=wrap;html=1;align=center;glass=0;" parent="1" vertex="1">
          <mxGeometry x="717.5" y="230" width="145" height="60" as="geometry" />
        </mxCell>
        <mxCell id="WbEfnXnHUkvsYJeZbc4o-12" value="ACCOMMODATIONS" style="whiteSpace=wrap;html=1;align=center;glass=0;" parent="1" vertex="1">
          <mxGeometry x="330" y="540" width="140" height="60" as="geometry" />
        </mxCell>
        <mxCell id="WbEfnXnHUkvsYJeZbc4o-7" value="RESERVATIONS" style="whiteSpace=wrap;html=1;align=center;glass=0;" parent="1" vertex="1">
          <mxGeometry x="60" y="420" width="140" height="60" as="geometry" />
        </mxCell>
        <mxCell id="WbEfnXnHUkvsYJeZbc4o-8" value="NOTIFICATIONS" style="whiteSpace=wrap;html=1;align=center;glass=0;" parent="1" vertex="1">
          <mxGeometry x="-160" y="310" width="140" height="60" as="geometry" />
        </mxCell>
        <mxCell id="WbEfnXnHUkvsYJeZbc4o-9" value="RECOMENDATIONS" style="whiteSpace=wrap;html=1;align=center;glass=0;" parent="1" vertex="1">
          <mxGeometry x="-160" y="180" width="140" height="60" as="geometry" />
        </mxCell>
        <mxCell id="DEsTeIGjAZ-HHGJhU62D-4" value="" style="endArrow=classic;startArrow=classic;html=1;rounded=0;" parent="1" source="DEsTeIGjAZ-HHGJhU62D-3" target="WbEfnXnHUkvsYJeZbc4o-10" edge="1">
          <mxGeometry width="50" height="50" relative="1" as="geometry">
            <mxPoint x="470" y="440" as="sourcePoint" />
            <mxPoint x="520" y="390" as="targetPoint" />
          </mxGeometry>
        </mxCell>
        <mxCell id="DEsTeIGjAZ-HHGJhU62D-5" value="" style="endArrow=classic;startArrow=classic;html=1;rounded=0;" parent="1" source="WbEfnXnHUkvsYJeZbc4o-11" target="DEsTeIGjAZ-HHGJhU62D-2" edge="1">
          <mxGeometry width="50" height="50" relative="1" as="geometry">
            <mxPoint x="470" y="440" as="sourcePoint" />
            <mxPoint x="520" y="390" as="targetPoint" />
          </mxGeometry>
        </mxCell>
        <mxCell id="DEsTeIGjAZ-HHGJhU62D-6" value="" style="endArrow=classic;startArrow=classic;html=1;rounded=0;" parent="1" source="DEsTeIGjAZ-HHGJhU62D-1" target="WbEfnXnHUkvsYJeZbc4o-12" edge="1">
          <mxGeometry width="50" height="50" relative="1" as="geometry">
            <mxPoint x="470" y="530" as="sourcePoint" />
            <mxPoint x="520" y="480" as="targetPoint" />
          </mxGeometry>
        </mxCell>
        <mxCell id="DEsTeIGjAZ-HHGJhU62D-7" value="&lt;div&gt;LOGIN,&lt;/div&gt;&lt;div&gt;REGISTER,&lt;/div&gt;&lt;div&gt;VERIFY EMAIL,&amp;nbsp;&lt;/div&gt;&lt;div&gt;CHANGE PASSWORD&lt;br&gt;&lt;/div&gt;" style="text;html=1;strokeColor=none;fillColor=none;align=center;verticalAlign=middle;whiteSpace=wrap;rounded=0;" parent="1" vertex="1">
          <mxGeometry x="460" y="310" width="135" height="80" as="geometry" />
        </mxCell>
        <mxCell id="DEsTeIGjAZ-HHGJhU62D-8" value="CASSANDRA" style="whiteSpace=wrap;html=1;align=center;glass=0;" parent="1" vertex="1">
          <mxGeometry x="60" y="540" width="140" height="60" as="geometry" />
        </mxCell>
        <mxCell id="DEsTeIGjAZ-HHGJhU62D-9" value="" style="endArrow=classic;startArrow=classic;html=1;rounded=0;" parent="1" source="WbEfnXnHUkvsYJeZbc4o-7" target="DEsTeIGjAZ-HHGJhU62D-8" edge="1">
          <mxGeometry width="50" height="50" relative="1" as="geometry">
            <mxPoint x="490" y="560" as="sourcePoint" />
            <mxPoint x="540" y="510" as="targetPoint" />
          </mxGeometry>
        </mxCell>
        <mxCell id="DEsTeIGjAZ-HHGJhU62D-10" value="" style="endArrow=classic;html=1;rounded=0;" parent="1" source="WbEfnXnHUkvsYJeZbc4o-10" target="WbEfnXnHUkvsYJeZbc4o-11" edge="1">
          <mxGeometry width="50" height="50" relative="1" as="geometry">
            <mxPoint x="540" y="360" as="sourcePoint" />
            <mxPoint x="590" y="310" as="targetPoint" />
          </mxGeometry>
        </mxCell>
        <mxCell id="DEsTeIGjAZ-HHGJhU62D-11" value="REGISTER #2" style="text;html=1;strokeColor=none;fillColor=none;align=center;verticalAlign=middle;whiteSpace=wrap;rounded=0;" parent="1" vertex="1">
          <mxGeometry x="670" y="340" width="60" height="30" as="geometry" />
        </mxCell>
        <mxCell id="DEsTeIGjAZ-HHGJhU62D-12" value="" style="endArrow=classic;startArrow=classic;html=1;rounded=0;" parent="1" source="WbEfnXnHUkvsYJeZbc4o-12" target="WbEfnXnHUkvsYJeZbc4o-10" edge="1">
          <mxGeometry width="50" height="50" relative="1" as="geometry">
            <mxPoint x="540" y="460" as="sourcePoint" />
            <mxPoint x="590" y="410" as="targetPoint" />
          </mxGeometry>
        </mxCell>
        <mxCell id="DEsTeIGjAZ-HHGJhU62D-13" value="" style="endArrow=classic;startArrow=classic;html=1;rounded=0;entryX=1;entryY=0;entryDx=0;entryDy=0;exitX=0.75;exitY=1;exitDx=0;exitDy=0;" parent="1" source="WbEfnXnHUkvsYJeZbc4o-11" target="WbEfnXnHUkvsYJeZbc4o-10" edge="1">
          <mxGeometry width="50" height="50" relative="1" as="geometry">
            <mxPoint x="540" y="460" as="sourcePoint" />
            <mxPoint x="590" y="410" as="targetPoint" />
          </mxGeometry>
        </mxCell>
        <mxCell id="DEsTeIGjAZ-HHGJhU62D-14" value="TOKEN CHECK" style="text;html=1;strokeColor=none;fillColor=none;align=center;verticalAlign=middle;whiteSpace=wrap;rounded=0;" parent="1" vertex="1">
          <mxGeometry x="780" y="370" width="60" height="30" as="geometry" />
        </mxCell>
        <mxCell id="DEsTeIGjAZ-HHGJhU62D-15" value="TOKEN CHECK" style="text;html=1;strokeColor=none;fillColor=none;align=center;verticalAlign=middle;whiteSpace=wrap;rounded=0;" parent="1" vertex="1">
          <mxGeometry x="510" y="535" width="60" height="30" as="geometry" />
        </mxCell>
        <mxCell id="DEsTeIGjAZ-HHGJhU62D-16" value="&lt;div&gt;CREATE,&lt;/div&gt;&lt;div&gt;GET ALL&lt;br&gt;&lt;/div&gt;" style="text;html=1;strokeColor=none;fillColor=none;align=center;verticalAlign=middle;whiteSpace=wrap;rounded=0;" parent="1" vertex="1">
          <mxGeometry x="345" y="380" width="60" height="30" as="geometry" />
        </mxCell>
        <mxCell id="DEsTeIGjAZ-HHGJhU62D-17" value="&lt;div&gt;GET BY ID,&lt;/div&gt;&lt;div&gt;UPDATE,&lt;/div&gt;&lt;div&gt;DELETE&lt;br&gt;&lt;/div&gt;" style="text;html=1;strokeColor=none;fillColor=none;align=center;verticalAlign=middle;whiteSpace=wrap;rounded=0;" parent="1" vertex="1">
          <mxGeometry x="570" y="155" width="100" height="70" as="geometry" />
        </mxCell>
        <mxCell id="DEsTeIGjAZ-HHGJhU62D-18" value="&lt;div&gt;CREATE,&lt;/div&gt;&lt;div&gt;DELETE,&lt;/div&gt;&lt;div&gt;GET BY USER&lt;br&gt;&lt;/div&gt;" style="text;html=1;strokeColor=none;fillColor=none;align=center;verticalAlign=middle;whiteSpace=wrap;rounded=0;" parent="1" vertex="1">
          <mxGeometry x="140" y="310" width="90" height="60" as="geometry" />
        </mxCell>
        <mxCell id="EFhkLCrpjTfm_33eodTO-3" style="edgeStyle=orthogonalEdgeStyle;rounded=0;orthogonalLoop=1;jettySize=auto;html=1;" edge="1" parent="1" source="EFhkLCrpjTfm_33eodTO-2" target="DEsTeIGjAZ-HHGJhU62D-1">
          <mxGeometry relative="1" as="geometry" />
        </mxCell>
        <mxCell id="EFhkLCrpjTfm_33eodTO-2" value="&lt;div&gt;&lt;font style=&quot;font-size: 24px;&quot;&gt;{&lt;/font&gt;&lt;/div&gt;&lt;div&gt;&lt;span style=&quot;&quot;&gt;&lt;span style=&quot;&quot;&gt;&amp;nbsp;&amp;nbsp;&amp;nbsp;&amp;nbsp;&lt;/span&gt;&lt;/span&gt;&lt;font style=&quot;font-size: 24px;&quot;&gt;id: ObjectId&lt;/font&gt;&lt;/div&gt;&lt;div&gt;&lt;font style=&quot;font-size: 24px;&quot;&gt;name: String&lt;/font&gt;&lt;/div&gt;&lt;div&gt;&lt;font style=&quot;font-size: 24px;&quot;&gt;country: String&lt;/font&gt;&lt;/div&gt;&lt;div&gt;&lt;font style=&quot;font-size: 24px;&quot;&gt;city: String&lt;/font&gt;&lt;/div&gt;&lt;div&gt;&lt;font style=&quot;font-size: 24px;&quot;&gt;streetName: String&lt;/font&gt;&lt;/div&gt;&lt;div&gt;&lt;font style=&quot;font-size: 24px;&quot;&gt;streetNumber: String&lt;/font&gt;&lt;/div&gt;&lt;div&gt;&lt;font style=&quot;font-size: 24px;&quot;&gt;amenities: String[]&lt;/font&gt;&lt;/div&gt;&lt;div&gt;&lt;font style=&quot;font-size: 24px;&quot;&gt;minGuests: int&lt;/font&gt;&lt;/div&gt;&lt;div&gt;&lt;font style=&quot;font-size: 24px;&quot;&gt;maxGuests: int&lt;/font&gt;&lt;/div&gt;&lt;div&gt;&lt;font style=&quot;font-size: 24px;&quot;&gt;username: String&lt;br&gt;&lt;/font&gt;&lt;/div&gt;&lt;div&gt;&lt;font style=&quot;font-size: 24px;&quot;&gt;}&lt;/font&gt;&lt;/div&gt;" style="whiteSpace=wrap;html=1;align=center;glass=0;" vertex="1" parent="1">
          <mxGeometry x="200" y="820" width="400" height="360" as="geometry" />
        </mxCell>
        <mxCell id="EFhkLCrpjTfm_33eodTO-6" style="edgeStyle=orthogonalEdgeStyle;rounded=0;orthogonalLoop=1;jettySize=auto;html=1;" edge="1" parent="1" source="EFhkLCrpjTfm_33eodTO-5" target="DEsTeIGjAZ-HHGJhU62D-3">
          <mxGeometry relative="1" as="geometry" />
        </mxCell>
        <mxCell id="EFhkLCrpjTfm_33eodTO-5" value="&lt;div&gt;&lt;font style=&quot;font-size: 24px;&quot;&gt;{&lt;/font&gt;&lt;/div&gt;&lt;div&gt;&lt;font style=&quot;font-size: 24px;&quot;&gt;id: ObjectId&lt;/font&gt;&lt;/div&gt;&lt;div&gt;&lt;font style=&quot;font-size: 24px;&quot;&gt;&amp;nbsp;username: String&amp;nbsp;&lt;/font&gt;&lt;/div&gt;&lt;div&gt;&lt;font style=&quot;font-size: 24px;&quot;&gt;password: String&amp;nbsp;&lt;/font&gt;&lt;/div&gt;&lt;div&gt;&lt;font style=&quot;font-size: 24px;&quot;&gt;email: String&amp;nbsp;&lt;/font&gt;&lt;/div&gt;&lt;div&gt;&lt;font style=&quot;font-size: 24px;&quot;&gt;isVerifiedEmail: boolean&lt;/font&gt;&lt;/div&gt;&lt;div&gt;&lt;font style=&quot;font-size: 24px;&quot;&gt;&amp;nbsp;role: String&lt;/font&gt;&lt;/div&gt;&lt;div&gt;&lt;font style=&quot;font-size: 24px;&quot;&gt;}&lt;br&gt;&lt;/font&gt;&lt;/div&gt;" style="whiteSpace=wrap;html=1;align=center;glass=0;" vertex="1" parent="1">
          <mxGeometry x="750" y="720" width="350" height="310" as="geometry" />
        </mxCell>
        <mxCell id="EFhkLCrpjTfm_33eodTO-8" style="edgeStyle=orthogonalEdgeStyle;rounded=0;orthogonalLoop=1;jettySize=auto;html=1;" edge="1" parent="1" source="EFhkLCrpjTfm_33eodTO-7" target="DEsTeIGjAZ-HHGJhU62D-2">
          <mxGeometry relative="1" as="geometry">
            <Array as="points">
              <mxPoint x="1350" y="260" />
            </Array>
          </mxGeometry>
        </mxCell>
        <mxCell id="EFhkLCrpjTfm_33eodTO-7" value="&lt;font style=&quot;font-size: 24px;&quot;&gt;users/id: {FirstName: String, LastName: String, country: String, city: String, streetName: String, streetNumber: String}&lt;/font&gt;" style="whiteSpace=wrap;html=1;align=center;glass=0;" vertex="1" parent="1">
          <mxGeometry x="1110" y="360" width="560" height="227.5" as="geometry" />
        </mxCell>
        <mxCell id="EFhkLCrpjTfm_33eodTO-10" style="edgeStyle=orthogonalEdgeStyle;rounded=0;orthogonalLoop=1;jettySize=auto;html=1;entryX=0;entryY=0.5;entryDx=0;entryDy=0;" edge="1" parent="1" source="EFhkLCrpjTfm_33eodTO-9" target="DEsTeIGjAZ-HHGJhU62D-8">
          <mxGeometry relative="1" as="geometry" />
        </mxCell>
        <mxCell id="EFhkLCrpjTfm_33eodTO-9" value="&lt;div&gt;&lt;font style=&quot;font-size: 24px;&quot;&gt;dateByAccommodation&amp;nbsp;&lt;/font&gt;&lt;/div&gt;&lt;div&gt;&lt;font style=&quot;font-size: 24px;&quot;&gt;accommo_id(PK), startDate, endDate, pricePerPerson, PriceOfUnit&lt;/font&gt;&lt;/div&gt;&lt;div&gt;&lt;font style=&quot;font-size: 24px;&quot;&gt;ReservationByAccommodation&lt;/font&gt;&lt;/div&gt;&lt;div&gt;&lt;font style=&quot;font-size: 24px;&quot;&gt;accommo_id(PK), guest_id, startDate, endDate, &lt;br&gt;&lt;/font&gt;&lt;/div&gt;" style="whiteSpace=wrap;html=1;align=center;glass=0;" vertex="1" parent="1">
          <mxGeometry x="-750" y="640" width="880" height="230" as="geometry" />
        </mxCell>
        <mxCell id="EFhkLCrpjTfm_33eodTO-11" value="" style="endArrow=classic;startArrow=classic;html=1;rounded=0;exitX=1;exitY=0.5;exitDx=0;exitDy=0;" edge="1" parent="1" source="WbEfnXnHUkvsYJeZbc4o-7" target="WbEfnXnHUkvsYJeZbc4o-10">
          <mxGeometry width="50" height="50" relative="1" as="geometry">
            <mxPoint x="270" y="600" as="sourcePoint" />
            <mxPoint x="320" y="550" as="targetPoint" />
          </mxGeometry>
        </mxCell>
        <mxCell id="EFhkLCrpjTfm_33eodTO-12" value="TOKEN CHECK" style="text;html=1;strokeColor=none;fillColor=none;align=center;verticalAlign=middle;whiteSpace=wrap;rounded=0;" vertex="1" parent="1">
          <mxGeometry x="240" y="458.75" width="60" height="30" as="geometry" />
        </mxCell>
      </root>
    </mxGraphModel>
  </diagram>
</mxfile>
